<svg xmlns="http://www.w3.org/2000/svg" viewBox="0 0 500 500"><g id="freepik--background-simple--inject-3"><path d="M331.64,345.65c30.07-16.44,119.63-62,105.86-133.54-14.34-74.56-72.3-75.59-146-51.41-68.87,22.58-65.63-56.84-158.78-26.3-78.87,25.85-111.91,159.8,3,222.3C205.42,394.64,297.67,364.22,331.64,345.65Z" style="fill:#407BFF"></path><path d="M331.64,345.65c30.07-16.44,119.63-62,105.86-133.54-14.34-74.56-72.3-75.59-146-51.41-68.87,22.58-65.63-56.84-158.78-26.3-78.87,25.85-111.91,159.8,3,222.3C205.42,394.64,297.67,364.22,331.64,345.65Z" style="fill:#fff;opacity:0.9"></path></g><g id="freepik--Shadow--inject-3"><ellipse id="freepik--path--inject-3" cx="250" cy="412.39" rx="193.89" ry="11.32" style="fill:#f5f5f5"></ellipse></g><g id="freepik--characters-3-and-4--inject-3"><path d="M387,169.65l-1,23.7a9.37,9.37,0,0,1-5.32,8.06c-1.68.8-3.32,1.57-4.09,1.9-1.84.86-3.66,1.58-5.48,2.29-3.67,1.43-7.31,2.73-11.07,3.92l-3.39-8.81c3.07-1.06,15.33-5.58,19.58-7.26l5.46-24.28C381.21,168.57,387,169.65,387,169.65Z" style="fill:#ebb376"></path><path d="M386.52,171.54l2.1-7.93-7.75,0s-.6,4.53,2,6.84Z" style="fill:#ebb376"></path><path d="M387.43,159.18l-2.88-.58a2.34,2.34,0,0,0-2.66,1.58l-1,3.45,7.75,0,.42-2.11A2,2,0,0,0,387.43,159.18Z" style="fill:#ebb376"></path><path d="M350.54,200.43c2.56-3.94,20.74-4.43,20.74-4.43l.82,12.68S360.82,212.06,354,212C348.9,210.83,348.84,203.91,350.54,200.43Z" style="fill:#407BFF"></path><path d="M350.54,200.43c2.56-3.94,20.74-4.43,20.74-4.43l.82,12.68S360.82,212.06,354,212C348.9,210.83,348.84,203.91,350.54,200.43Z" style="fill:#407BFF"></path><path d="M350.54,200.43c2.56-3.94,20.74-4.43,20.74-4.43l.82,12.68S360.82,212.06,354,212C348.9,210.83,348.84,203.91,350.54,200.43Z" style="fill:#fff;opacity:0.1"></path><path d="M320.89,188c0,3-.24,0,1.64,5.24s.59,11.17-7.19,9.77-11.74.43-16.91,1.73S286.26,201,289.59,195s2.81-9.81,0-10.06c-5.07-.47-4-9.5.17-14.48,3.28-3.91,3.28-3.91,10.74-4.91C324.3,162.36,320.91,185,320.89,188Z" style="fill:#263238"></path><path d="M292.65,381.13c-1.44,6.54-3.55,29-3.55,29l-7.49.72s.53-22.4,0-28.8Z" style="fill:#cb7a63"></path><path d="M277.67,409a3.6,3.6,0,0,1-2.47-.45.74.74,0,0,1,0-.85,1,1,0,0,1,.58-.5c1.35-.48,4.34.95,4.47,1a.19.19,0,0,1,0,.36A15.18,15.18,0,0,1,277.67,409Zm-1.43-1.51a1.45,1.45,0,0,0-.36.08.56.56,0,0,0-.37.3c-.12.25-.06.37,0,.43.42.51,2.49.37,4,.07A9.14,9.14,0,0,0,276.24,407.45Z" style="fill:#407BFF"></path><path d="M280.14,408.54h-.08c-1-.36-3.12-2-3-2.94,0-.23.16-.51.69-.6a1.46,1.46,0,0,1,1.11.25c1.11.79,1.49,3,1.51,3.09a.18.18,0,0,1-.08.18A.15.15,0,0,1,280.14,408.54Zm-2.25-3.18h-.12c-.35.06-.36.2-.37.25,0,.57,1.39,1.87,2.45,2.4a4.61,4.61,0,0,0-1.27-2.45,1.07,1.07,0,0,0-.69-.19Z" style="fill:#407BFF"></path><path d="M280.93,407.33l9-.65a.73.73,0,0,1,.75.51l2.15,7.19a1.2,1.2,0,0,1-.8,1.51l-.25.05c-3.24.18-6.13.21-10.16.5-4.76.35-3.51.83-9.1,1.32-3.37.29-4.26-3.5-2.85-3.79,6.48-1.3,7-3.32,9.37-5.85A3,3,0,0,1,280.93,407.33Z" style="fill:#263238"></path><path d="M308.19,304.45a26.78,26.78,0,0,1-1.92,5.46c-2.91,6.27-9.21,34.44-9.21,34.44,5.57,17.62-3.64,52.84-4.05,54.32l-12.56.82c-.15-1.5-.31-3.17-.48-4.95-1.26-13.23-.68-31.9-1.62-48.13-1.56-26.79,8.93-82.88,8.93-82.88l24.33-1.31,3.64,16A28.65,28.65,0,0,1,308.19,304.45Z" style="fill:#263238"></path><path d="M306.74,308.44c-3,6.4-7.84,20.38-7.84,20.38,2.26-7.46,4.53-27.78,8.1-37.19h0Z" style="opacity:0.2"></path><path d="M338.56,407.77l-7,2.42s-4.26-13.71-6.55-21.12l10.5-1.15C335.8,392.7,338.56,407.77,338.56,407.77Z" style="fill:#cb7a63"></path><path d="M327.09,408.21a3.47,3.47,0,0,1-2.44-.55.72.72,0,0,1,0-.85,1,1,0,0,1,.6-.47c1.36-.43,4.29,1.12,4.42,1.19a.2.2,0,0,1-.05.37A14.23,14.23,0,0,1,327.09,408.21Zm-1.36-1.56a1.15,1.15,0,0,0-.37.06.56.56,0,0,0-.38.29c-.13.24-.08.36,0,.43.4.52,2.48.47,4,.23A9.07,9.07,0,0,0,325.73,406.65Z" style="fill:#407BFF"></path><path d="M329.58,407.9a.11.11,0,0,1-.08,0c-1-.4-3-2.13-2.9-3.06,0-.23.18-.5.71-.57a1.45,1.45,0,0,1,1.1.29c1.08.83,1.37,3.05,1.38,3.15a.18.18,0,0,1-.08.18A.2.2,0,0,1,329.58,407.9Zm-2.13-3.28h-.11c-.35,0-.37.18-.38.23,0,.56,1.31,1.92,2.35,2.49a4.58,4.58,0,0,0-1.17-2.49,1,1,0,0,0-.69-.23Z" style="fill:#407BFF"></path><path d="M330.41,406.72l9-.29a.72.72,0,0,1,.73.54l1.86,7.27a1.2,1.2,0,0,1-.86,1.47.69.69,0,0,1-.25,0c-3.24.05-6.14,0-10.17.1-4.77.16-3.54.69-9.15.95-3.37.15-4.11-3.67-2.69-3.9,6.53-1,7.15-3,9.6-5.47A2.9,2.9,0,0,1,330.41,406.72Z" style="fill:#263238"></path><path d="M338.88,398.27l-11.44,1.32c-.67-1.44-1.38-3-2.15-4.77-6.83-15.41-17.1-35.08-19.67-52.24-3.92-26.23.52-79.78.52-79.78l23.79-2.38a60.6,60.6,0,0,1,4.62,25.52c-.9,31.56-9.33,54.41-9.33,54.41C336.16,356.32,338.82,396.84,338.88,398.27Z" style="fill:#263238"></path><polygon points="340.69 393.13 340.19 397.94 339.28 398.23 338.88 398.27 327.44 399.59 326.77 399.66 324.46 399.93 323.74 394.97 325.29 394.81 326.06 394.74 338.6 393.49 340.29 393.32 340.69 393.13" style="fill:#407BFF"></polygon><path d="M361.73,197.16a36.51,36.51,0,0,1-16.7,1.4s-10.33,6.24-14.75,8.76a16.39,16.39,0,0,1-6-10.92c6-1.4,12.87-4.07,18.86-5.33,5-1,18.85,1.16,18.85,1.16Z" style="fill:#cb7a63"></path><path d="M362,192.23c2.15-.32,5-.45,6.14-.49a1.54,1.54,0,0,1,.91.24c.85.55,2.78,1.77,3.56,2.15a2.08,2.08,0,0,1,1.06,2.08l-.2,1.63a1.52,1.52,0,0,1-1.6,1.42c-1.26-.1-4.17,0-4.17,0s-2.25-.63-6-2.07Z" style="fill:#cb7a63"></path><path d="M337.77,203.83s-8.89,5.21-11.91,6.53c-6.23,2.73-10-5.19-9.92-7a6.77,6.77,0,0,1,1.59-4.16c3.3-4.75,16.85-7,16.85-7A63.29,63.29,0,0,0,337.77,203.83Z" style="fill:#407BFF"></path><path d="M337.77,203.83s-8.89,5.21-11.91,6.53c-6.23,2.73-10-5.19-9.92-7a6.77,6.77,0,0,1,1.59-4.16c3.3-4.75,16.85-7,16.85-7A63.29,63.29,0,0,0,337.77,203.83Z" style="opacity:0.2"></path><path d="M284.13,210.46l-8.19,14.95L258.44,242s-4.2-.15-6.28,1.07l4.24,7.33a8.23,8.23,0,0,0,4.53-3.66s15.5-3.52,23.81-16.35c3.75-5.78,10.62-15,10.83-17.71s-1.34-6.68-4.58-6.88S286,206.7,284.13,210.46Z" style="fill:#cb7a63"></path><path d="M283.17,207.56l-7.43,11.11,14.75,7.45s5.78-5.36,6.76-13.15c.82-6.48-3.44-12.48-9.37-10.17A8.57,8.57,0,0,0,283.17,207.56Z" style="fill:#407BFF"></path><path d="M283.17,207.56l-7.43,11.11,14.75,7.45s5.78-5.36,6.76-13.15c.82-6.48-3.44-12.48-9.37-10.17A8.57,8.57,0,0,0,283.17,207.56Z" style="opacity:0.2"></path><path d="M252.16,243l-2.44,2a2.44,2.44,0,0,0-.51,3.24l1.46,2.21a2.45,2.45,0,0,0,2.9,1l2.83-1Z" style="fill:#cb7a63"></path><path d="M322.55,195.64c-5.24,2.26-23.77,5.45-29.65,6.36a4,4,0,0,0-3.11,2.47,34.31,34.31,0,0,1-1.66,3.26c-2.15,4.05-3.15,6.23-4.95,9.18-1.7,2.77-.05,5.45.68,7.44a13.14,13.14,0,0,1,.31,6c-4.21,40.76,4.48,37.15,4.48,37.15,20.48-.28,42.12-4.55,42.12-4.55C322.81,238.91,329.29,192.72,322.55,195.64Z" style="fill:#407BFF"></path><path d="M322.55,195.64c-5.24,2.26-23.77,5.45-29.65,6.36a4,4,0,0,0-3.11,2.47,34.31,34.31,0,0,1-1.66,3.26c-2.15,4.05-3.15,6.23-4.95,9.18-1.7,2.77-.05,5.45.68,7.44a13.14,13.14,0,0,1,.31,6c-4.21,40.76,4.48,37.15,4.48,37.15,20.48-.28,42.12-4.55,42.12-4.55C322.81,238.91,329.29,192.72,322.55,195.64Z" style="opacity:0.2"></path><path d="M299.43,214.09l5.71-3.17a19.43,19.43,0,0,0,9.3-11.87h0c-5.64-1.2-6.05-7.57-5.55-13L299,196.49c1.32,3.77.88,2.73-3.09,5.18C295.7,201.94,289.38,208.35,299.43,214.09Z" style="fill:#cb7a63"></path><path d="M307.17,190.48a13.17,13.17,0,0,0-.43-4.72l-3.47,2.67-3.52,3.71a17.54,17.54,0,0,1,1,4.14C303.66,195.28,306.81,193.09,307.17,190.48Z" style="opacity:0.2;isolation:isolate"></path><path d="M311.67,183.53c-1.75,7.18-2.33,10.25-6.67,13.32-6.51,4.61-14.94.9-15.38-6.66-.39-6.79,2.53-17.38,10.15-19a10.08,10.08,0,0,1,11.9,12.34Z" style="fill:#cb7a63"></path><path d="M300.79,169.65c-3.45,2.73-.31,7.48,1.41,9.65s7.25,5.54,5.29,8.82.57,12.61,6.95,10.93S318,179.42,316,174.52,304.9,166.4,300.79,169.65Z" style="fill:#263238"></path><path d="M295.22,183.72a15.86,15.86,0,0,1-2.78,3.39,2.54,2.54,0,0,0,2,.78Z" style="fill:#b74d3c"></path><path d="M301.63,181.14a.44.44,0,0,0,.15,0,.29.29,0,0,0,.09-.4h0a3.41,3.41,0,0,0-2.68-1.67.31.31,0,0,0-.3.29.3.3,0,0,0,.28.29,2.9,2.9,0,0,1,2.21,1.4A.29.29,0,0,0,301.63,181.14Z" style="fill:#263238"></path><path d="M291,179a.33.33,0,0,0,.14,0,2.89,2.89,0,0,1,2.59-.22.3.3,0,0,0,.4-.12h0a.3.3,0,0,0-.14-.4,3.44,3.44,0,0,0-3.15.23.3.3,0,0,0-.12.4.28.28,0,0,0,.28.15Z" style="fill:#263238"></path><path d="M299.57,183.49c-.11.59-.51,1-.9.94s-.61-.6-.5-1.19.51-1,.89-1S299.67,182.89,299.57,183.49Z" style="fill:#263238"></path><path d="M292.89,182.29c-.11.59-.51,1-.89.94s-.61-.59-.51-1.19.51-1,.89-.94S293,181.7,292.89,182.29Z" style="fill:#263238"></path><path d="M292.54,181.16l-1.34-.66S291.73,181.74,292.54,181.16Z" style="fill:#263238"></path><path d="M299.22,182.36l-1.34-.66S298.41,182.93,299.22,182.36Z" style="fill:#263238"></path><path d="M311.42,189.94a5.42,5.42,0,0,1-3.12,2.69c-1.81.57-2.78-1-2.34-2.76.4-1.56,1.82-3.75,3.66-3.57a2.43,2.43,0,0,1,1.8,3.64Z" style="fill:#cb7a63"></path><path d="M298.68,190.14a4.49,4.49,0,0,0,.73-.5.16.16,0,0,0,0-.24h0a.17.17,0,0,0-.25,0,4.82,4.82,0,0,1-4.22.93.16.16,0,0,0-.22.11.18.18,0,0,0,.11.22A4.94,4.94,0,0,0,298.68,190.14Z" style="fill:#263238"></path><g id="freepik--freepik--character-1--inject-22--inject-3"><polygon points="361.4 408.13 354.14 409.24 353.12 401.35 360.72 400.2 361.4 408.13" style="fill:#ebb376"></polygon><path d="M353.52,407.77l8.24-.92a.64.64,0,0,1,.68.43l2.16,6.38a1.09,1.09,0,0,1-.7,1.38l-.23,0c-2.89.27-4.31.26-7.94.66-2.23.25-8,1.14-11.09,1.48s-3.82-2.66-2.59-3.08c5.55-1.88,8.67-4,10.3-5.79A1.84,1.84,0,0,1,353.52,407.77Z" style="fill:#407BFF"></path><polygon points="353.02 400.59 353.65 405.32 361.08 404.34 360.73 399.96 353.02 400.59" style="opacity:0.2"></polygon><path d="M325.64,251.1c-.64,8.94,5.17,51.54,9.76,70.17,6.1,24.74,16,82.66,16,82.66l10.95-1.67s-.84-49.44-7.83-68.72c-1.77-26.07-6.14-84.59-6.14-84.59Z" style="fill:#263238"></path><path d="M350,277.37c-.4-6.61-5.7-11.93-6.19.69-.31,8,3.69,21.58,8,31C351.12,298.83,350.49,287.44,350,277.37Z" style="opacity:0.2"></path><polygon points="412.81 385.69 407.6 389.75 401.86 382.2 407.07 378.15 412.81 385.69" style="fill:#ebb376"></polygon><path d="M406.74,389.7l5.56-6.19a.56.56,0,0,1,.76-.09l5.35,3.93a1.25,1.25,0,0,1,.17,1.77l0,0c-2,2.12-3,3-5.46,5.77-1.51,1.67-3.28,4-5.35,6.33s-4.37.27-3.71-.89c3-5.19,2.12-6.81,2.25-9.42A2,2,0,0,1,406.74,389.7Z" style="fill:#407BFF"></path><polygon points="401.86 382.2 404.44 385.59 409.7 381.36 407.07 378.15 401.86 382.2" style="opacity:0.2"></polygon><path d="M340.31,259.84s14.48,54.74,21.8,75.22c5.28,14.77,40,49.43,40,49.43l7.13-5.23s-14.58-28.88-32.62-47.14c-3.24-23.39-4.9-62.32-15.4-74.18Z" style="fill:#263238"></path><path d="M325.72,214.14c-3.28,3.46-6.67,6.71-10.19,9.9s-22.84,16.44-38.19,19.54a2,2,0,0,1-1.11-3.87l0,0c4.25-1.68,40.35-28,43.59-31.2l0,0a4.09,4.09,0,1,1,5.84,5.72Z" style="fill:#ebb376"></path><path d="M276.86,239.77l-6.54-.86,2.6,7.16s3.93-.62,5.59-3.49Z" style="fill:#ebb376"></path><path d="M320.34,203.46c-6.55,2.14-3.41,4.88-7.72,8.39-5,4.07-4.4,4.73-4.4,4.73l7.77,8.6s9.65-7.26,13.56-10.06S325.29,203.29,320.34,203.46Z" style="fill:#407BFF"></path><path d="M320.34,203.46c-6.55,2.14-3.41,4.88-7.72,8.39-5,4.07-4.4,4.73-4.4,4.73l7.77,8.6s9.65-7.26,13.56-10.06S325.29,203.29,320.34,203.46Z" style="opacity:0.1"></path><path d="M266.08,244l1.86,2.65a1.62,1.62,0,0,0,1.9.6l3.08-1.13-2.6-7.16-3.86,2.78A1.64,1.64,0,0,0,266.08,244Z" style="fill:#ebb376"></path><path d="M316.18,208.17c1.27,14.7,7.8,40.82,8.52,49.76,1.45,18.28,8.64,63.9,8.64,63.9,8.06,0,26.14-4.6,35.35-11.61l.25-14.72L374.78,308l2.2-4.32-6.06-25.41c-2.23-17.88-14-24-14.29-26.77a248.07,248.07,0,0,1,.82-44.78,6.9,6.9,0,0,0-6-7.7c-.21,0-.42,0-.63,0-1.95-.07-4.12-.1-6.31,0a104.42,104.42,0,0,0-14.66,1.33c-3.4.63-7,1.54-9.62,2.23A5.47,5.47,0,0,0,316.18,208.17Z" style="fill:#407BFF"></path><g style="opacity:0.1"><path d="M322.82,246.19c.94,4.93,1.66,9.09,1.88,11.74,1.45,18.28,8.64,63.9,8.64,63.9,8.06,0,26.14-4.6,35.35-11.61l.25-14.72L374.78,308l2.2-4.32-6.06-25.41c-2.23-17.88-14-24-14.29-26.77a248.07,248.07,0,0,1,.82-44.78,6.9,6.9,0,0,0-6-7.7c-.21,0-.42,0-.63,0-1.95-.07-4.12-.1-6.31,0h0c-10.25,7.41-18.4,10.49-21.28,33Z" style="fill:#fff"></path></g><path d="M341.6,182.58c-.49,4.8-.64,13.52,2.95,16.36A46.25,46.25,0,0,0,331.68,209c-4.29-6.15-1.79-8.73-1.79-8.73,5.13-1.73,4.65-5.62,3.4-9.2Z" style="fill:#ebb376"></path><path d="M344.81,198.73a7.54,7.54,0,0,1-2-4.8,6.5,6.5,0,0,0-6.07,3.09c-1.37,2.34-1.11,5.24-.81,7.93C338.83,202.85,341.91,200.83,344.81,198.73Z" style="fill:#407BFF"></path><path d="M344.81,198.73a7.54,7.54,0,0,1-2-4.8,6.5,6.5,0,0,0-6.07,3.09c-1.37,2.34-1.11,5.24-.81,7.93C338.83,202.85,341.91,200.83,344.81,198.73Z" style="fill:#fff;opacity:0.1"></path><path d="M340.7,183.51a19.85,19.85,0,0,1-1.22,8.26c-.7,1.82-3,2.8-5.35,3.21a13.05,13.05,0,0,0-.82-3.91Z" style="opacity:0.2;isolation:isolate"></path><path d="M330,166.79a48,48,0,0,1-.58,16.64l-2.76-.68c.26-4.55.92-9.31,1.18-13.86-.83,3.26-1.74,6.91-2.57,10.17-.67-.21-1.28-.51-2-.71.65-2.64,1.66-5.35,2.3-8a7.5,7.5,0,0,1,1.23-3A2.79,2.79,0,0,1,330,166.79Z" style="fill:#407BFF"></path><path d="M321,171.75a4.88,4.88,0,1,0,5.44-8,4.4,4.4,0,0,0-4.21.42,4.77,4.77,0,0,0-1.9,3.62C320.29,169.21,320,170.79,321,171.75Z" style="fill:#263238"></path><path d="M348.57,176c-1.6,7.76-2.05,11.07-6.6,14.54-6.78,5.21-16,1.59-16.75-6.48-.7-7.26,2-18.73,10.08-20.77A10.78,10.78,0,0,1,348.46,171,10.66,10.66,0,0,1,348.57,176Z" style="fill:#ebb376"></path><path d="M329.45,183.69s2.3-.84,8.94-1.64c-.52,2.12-1.77,3.93-5.17,4.34A3.13,3.13,0,0,1,329.5,184,2.74,2.74,0,0,1,329.45,183.69Z" style="fill:#263238"></path><path d="M334.58,184.58A6.23,6.23,0,0,0,331,186a3.75,3.75,0,0,0,2.21.35,6.13,6.13,0,0,0,3.57-1.44A3.57,3.57,0,0,0,334.58,184.58Z" style="fill:#9d2724"></path><path d="M329.74,183.6a1.43,1.43,0,0,0,1.17.88,36,36,0,0,0,5.81-1.23,1.92,1.92,0,0,0,1.37-1.18A53.8,53.8,0,0,0,329.74,183.6Z" style="fill:#fff"></path><path d="M334.38,162.05a11.48,11.48,0,0,0-8.33,9.64c1.25,0,2.62-.58,3.88-.62a8.13,8.13,0,0,1,3.47-5.46,6.93,6.93,0,0,0-1.79,5.18c1.3.18,2.53.45,3.83.62a15.27,15.27,0,0,1,2.68-5.19c-.06,2,.06,3.95,0,6,1.43.89,2.95,1.88,4.39,2.78a12.6,12.6,0,0,0-.41-9C340.75,163.17,337.35,161.29,334.38,162.05Z" style="fill:#263238"></path><path d="M340.06,163.28c.67,5.39,3.06,12.38,6,16.59,2.52.29,4.92-2.59,5.26-5.57a8.86,8.86,0,0,0-3.18-7.69C346,164.93,342.56,162.88,340.06,163.28Z" style="fill:#263238"></path><path d="M348.15,169.93a48,48,0,0,0,.42,16.65c.87-.2,1.88-.46,2.76-.66-.21-4.55-.82-9.32-1-13.87.8,3.27,1.68,6.93,2.47,10.19.68-.2,1.28-.49,1.95-.69-.62-2.64-1.59-5.36-2.21-8a7.57,7.57,0,0,0-1.21-3A2.79,2.79,0,0,0,348.15,169.93Z" style="fill:#407BFF"></path><path d="M357,175a4.88,4.88,0,1,1-5.35-8,4.39,4.39,0,0,1,4.2.46,4.79,4.79,0,0,1,1.86,3.65C357.79,172.45,358.06,174,357,175Z" style="fill:#263238"></path><path d="M350.69,180.1a5.73,5.73,0,0,1-2.49,3.68c-1.71,1.09-3.15-.28-3.18-2.2,0-1.73.85-4.38,2.8-4.71a2.61,2.61,0,0,1,2.93,2.22A2.86,2.86,0,0,1,350.69,180.1Z" style="fill:#ebb376"></path><path d="M336.81,176.69c-.09.63-.5,1.11-.92,1.05s-.68-.63-.59-1.26.5-1.11.92-1S336.9,176.05,336.81,176.69Z" style="fill:#263238"></path><path d="M329.61,175.68c-.09.65-.5,1.11-.92,1s-.68-.61-.59-1.26.5-1.1.91-1.05S329.7,175.05,329.61,175.68Z" style="fill:#263238"></path><path d="M329.19,174.49l-1.47-.66S328.34,175.14,329.19,174.49Z" style="fill:#263238"></path><path d="M331.33,177a17.33,17.33,0,0,1-2.83,3.76,2.77,2.77,0,0,0,2.21.74Z" style="fill:#ed893e"></path><path d="M338.76,174.47a.47.47,0,0,1-.14-.14,3,3,0,0,0-2.22-1.58.39.39,0,0,1-.35-.4.38.38,0,0,1,.4-.36h0a3.79,3.79,0,0,1,2.84,2,.39.39,0,0,1-.17.52A.36.36,0,0,1,338.76,174.47Z" style="fill:#263238"></path><path d="M327.31,172.83l-.06,0a.38.38,0,0,1-.06-.53,3.78,3.78,0,0,1,3.15-1.31.38.38,0,0,1,.32.42h0a.38.38,0,0,1-.43.32,3,3,0,0,0-2.51,1.06A.35.35,0,0,1,327.31,172.83Z" style="fill:#263238"></path><path d="M336.4,175.49l-1.48-.66S335.54,176.15,336.4,175.49Z" style="fill:#263238"></path><path d="M335.86,205.16a30.5,30.5,0,0,0-4.75,4.63c-.26.31-.51.65-.77,1-2.35-2.72-2.8-6.78-1.84-10.3a4.76,4.76,0,0,0,4.06-4.21c.62-.25,1.25.29,1.69.79a4.16,4.16,0,0,1,.81,1.83A26.47,26.47,0,0,1,335.86,205.16Z" style="fill:#407BFF"></path></g><polygon points="295.43 395.62 294.68 400.41 292.29 400.56 279.72 401.39 277.4 401.53 276.92 396.55 279.25 396.43 293.54 395.72 295.43 395.62" style="fill:#407BFF"></polygon><path d="M387.53,125.53s12.54-4.3,19.47-.85,16.15-1.52,16.15-1.52-5.59,8.52-4.37,17.13c0,0-8.52,5.84-15.23.31s-16.86,2.22-16.86,2.22Z" style="fill:#407BFF"></path><path d="M387.53,125.53s12.54-4.3,19.47-.85,16.15-1.52,16.15-1.52-5.59,8.52-4.37,17.13c0,0-8.52,5.84-15.23.31s-16.86,2.22-16.86,2.22Z" style="fill:#fff;opacity:0.5"></path><rect x="364.6" y="143.78" width="44.01" height="1.64" transform="translate(223.55 523.8) rotate(-87.24)" style="fill:#263238"></rect></g><g id="freepik--characters-1-and-2--inject-3"><path d="M236.94,235l6.7,7.75,4.29,4.78a3,3,0,0,1-.27,4.32l-1.14,1a3.36,3.36,0,0,1-2.13.82l-1.2,0a3.3,3.3,0,0,1-3-1.72l-1.53-2.9a3,3,0,0,1-.32-1l-.48-3.81-5.46-5.12Z" style="fill:#71403e"></path><path d="M243.06,240.27l-7.52,4s-8.12-11-16.66-24c-3-4.63-9.09-13.16-9.09-13.16-4-8.1-9.46-27.12-8.4-27.12,7,0,11.34,3.43,17.55,16.32C222.42,203.63,243.06,240.27,243.06,240.27Z" style="fill:#407BFF"></path><polygon points="184.26 389.08 188.24 409.81 196.02 409.13 194.25 388.23 184.26 389.08" style="fill:#71403e"></polygon><path d="M196.78,408.18a.17.17,0,0,1-.15-.15.17.17,0,0,1,.08-.19c.12-.07,2.79-1.71,4.11-1.39a1,1,0,0,1,.59.41.69.69,0,0,1,0,.8,3.33,3.33,0,0,1-2.28.67A13.65,13.65,0,0,1,196.78,408.18Zm.59-.27c1.46.14,3.43.07,3.77-.45.05-.07.1-.18,0-.41a.5.5,0,0,0-.37-.24,1.34,1.34,0,0,0-.35,0A8.75,8.75,0,0,0,197.37,407.91Z" style="fill:#407BFF"></path><path d="M196.68,408.17a.18.18,0,0,1-.09-.16c0-.1.15-2.21,1.12-3.06a1.42,1.42,0,0,1,1-.35c.51,0,.68.29.71.5.19.88-1.63,2.62-2.55,3.07h-.08A.2.2,0,0,1,196.68,408.17Zm1.94-3.21a.93.93,0,0,0-.63.25,4.32,4.32,0,0,0-1,2.42c.94-.6,2.13-2,2.07-2.49,0,0,0-.18-.37-.2l-.11,0Z" style="fill:#407BFF"></path><path d="M196,407.11l-8.52.26a.68.68,0,0,0-.65.56l-1.33,7a1.14,1.14,0,0,0,.9,1.34l.24,0c3.07-.15,5.79-.4,9.62-.51,4.51-.14,3.38.44,8.69.35,3.19-.06,3.67-3.71,2.31-3.85-6.23-.59-6.93-2.44-9.39-4.59A2.73,2.73,0,0,0,196,407.11Z" style="fill:#263238"></path><polygon points="195.35 401.2 194.25 388.23 184.26 389.08 186.75 401.64 195.35 401.2" style="opacity:0.2"></polygon><polygon points="230.68 385.95 234.1 408.55 226.87 408.89 221.05 388.73 230.68 385.95" style="fill:#71403e"></polygon><polygon points="231.25 389.7 232.6 398.64 224.28 399.93 221.65 390.81 231.25 389.7" style="opacity:0.2"></polygon><path d="M235.78,407.85a.21.21,0,0,1-.16-.14.18.18,0,0,1,.08-.2c.11-.08,2.71-1.84,4-1.58a1,1,0,0,1,.61.38.71.71,0,0,1,.08.8,3.33,3.33,0,0,1-2.25.77A13.74,13.74,0,0,1,235.78,407.85Zm.58-.29c1.46.06,3.43-.1,3.75-.64,0-.06.09-.18-.07-.4a.51.51,0,0,0-.38-.23,1.45,1.45,0,0,0-.36,0A8.6,8.6,0,0,0,236.36,407.56Z" style="fill:#407BFF"></path><path d="M235.68,407.85a.22.22,0,0,1-.09-.16c0-.1,0-2.22,1-3.11a1.4,1.4,0,0,1,1-.4c.51,0,.69.26.72.47.24.86-1.5,2.7-2.4,3.18a.11.11,0,0,1-.08,0A.19.19,0,0,1,235.68,407.85Zm1.79-3.31a1,1,0,0,0-.62.28,4.41,4.41,0,0,0-.85,2.47c.92-.64,2.05-2.06,2-2.58,0,0-.05-.18-.38-.19l-.11,0Z" style="fill:#407BFF"></path><path d="M234.9,406.82l-8.5.66a.68.68,0,0,0-.62.59l-1,7a1.13,1.13,0,0,0,1,1.3,1,1,0,0,0,.24,0c3.06-.29,5.77-.67,9.59-1,4.5-.35,3.4.28,8.7-.06,3.19-.2,3.49-3.88,2.13-3.95-6.25-.3-7-2.12-9.6-4.14A2.73,2.73,0,0,0,234.9,406.82Z" style="fill:#263238"></path><path d="M213.53,247.68s12.31,75,13.66,87.55,6.18,58.4,6.18,58.4l-11.1,2s-14.35-34.11-13.16-56.72c0,0-12.48-43.29-16.42-52.77,0,0-11.74-15.73-7.18-39.37Z" style="fill:#263238"></path><path d="M203.55,317.58c-2.27-7.24-4.44-13.84-5.81-17.12a24.32,24.32,0,0,1-5.46-3.8c-.63-2.79-1-4.58-1-4.58l5.32-22.6S203.86,294.7,203.55,317.58Z" style="opacity:0.2"></path><polygon points="235.46 390.3 235.67 395.12 220.46 396.99 219.23 392.03 235.46 390.3" style="fill:#263238"></polygon><polygon points="235.46 390.3 235.67 395.12 220.46 396.99 219.23 392.03 235.46 390.3" style="fill:#fff;opacity:0.5"></polygon><path d="M197.47,249.57l.42,40.43,1.36,19.5a340.33,340.33,0,0,1-.52,53.71l-3,34.07-12,1.36s-7.09-40.62-2.27-60.93c0,0-13-56-11.35-88.14Z" style="fill:#263238"></path><polygon points="183.15 394.13 184 398.88 198.57 397.38 198.57 392.63 183.15 394.13" style="fill:#263238"></polygon><polygon points="183.15 394.13 184 398.88 198.57 397.38 198.57 392.63 183.15 394.13" style="fill:#fff;opacity:0.5"></polygon><path d="M171.34,256.79l-5.22-65.51c-1.68-12.14.48-16.45,5.07-15.43l30.2,4.23c7.51,2,8.67,5.88,8.94,9h0A421.26,421.26,0,0,0,213,247.73l.75,6.57Z" style="fill:#407BFF"></path><path d="M184.83,161.36c.06,4.67-.49,12.64-3.49,16.35a2.46,2.46,0,0,0,0,3.06,16.78,16.78,0,0,0,10,6.61c5.18,1.15,6.06-1.59,5.44-4a2.43,2.43,0,0,0-1.17-1.49c-4.64-2.49-4.19-6.87-2.56-10.47Z" style="fill:#71403e"></path><path d="M188.17,165.5l4.89,5.95a16.37,16.37,0,0,0-.93,2.74,8,8,0,0,1-5-5.6C186.85,167,187.58,165.57,188.17,165.5Z" style="opacity:0.2;isolation:isolate"></path><path d="M184.26,153.64c-.36,7-.92,11.14,2.21,15.11,4.69,6,13.69,3.75,16.13-3,2.21-6.14,2.41-16.59-4.11-20.14a9.6,9.6,0,0,0-14.23,8Z" style="fill:#71403e"></path><path d="M197.09,169l-2.48-.36c.31.86.58,1.75.89,2.61C196.1,170.47,196.49,169.75,197.09,169Z" style="fill:#263238"></path><path d="M195,156.89c-.06.57.18,1.07.56,1.11s.72-.39.78-1-.18-1.06-.56-1.1S195,156.32,195,156.89Z" style="fill:#263238"></path><path d="M201.4,157.61c-.07.57.18,1.06.56,1.1s.72-.38.78-1-.18-1.06-.56-1.1S201.46,157,201.4,157.61Z" style="fill:#263238"></path><path d="M199.13,157.71a20.44,20.44,0,0,0,2.63,4.95,3.34,3.34,0,0,1-2.75.46Z" style="fill:#561616"></path><path d="M193.06,154a.3.3,0,0,1-.16-.05.35.35,0,0,1,0-.48,3.38,3.38,0,0,1,2.88-1.07.34.34,0,0,1,.27.39.33.33,0,0,1-.39.27h0a2.67,2.67,0,0,0-2.27.88A.31.31,0,0,1,193.06,154Z" style="fill:#263238"></path><path d="M204.19,155.3a.35.35,0,0,1-.24-.22,2.67,2.67,0,0,0-1.69-1.71A.35.35,0,0,1,202,153a.34.34,0,0,1,.41-.25,3.39,3.39,0,0,1,2.19,2.16.33.33,0,0,1-.2.42h0A.33.33,0,0,1,204.19,155.3Z" style="fill:#263238"></path><path d="M183.14,160.76a29.65,29.65,0,0,1-2.35-18.43,21.38,21.38,0,0,1,13.26-3c4.52.63,7.36,0,10.54,3.3,0,0-.88,5.74-1.82,7.54a33,33,0,0,0-4.84-1.14,29.79,29.79,0,0,0-9.88.61c.24,1.8.72,3.82.95,5.62a3.1,3.1,0,0,0-2.51,1c.25,2.23-.42,4.48-.17,6.72C185.48,162.28,183.62,161.74,183.14,160.76Z" style="fill:#263238"></path><path d="M180.11,159.77a6.75,6.75,0,0,0,3.82,3.41c2.23.74,3.47-1.21,3-3.37-.46-1.95-2.17-4.69-4.45-4.51S179.19,157.8,180.11,159.77Z" style="fill:#71403e"></path><path d="M200.27,165.47a52.41,52.41,0,0,0-8.36-1.15c.51,1.62,1.72,3,4.87,3.27S200.27,165.47,200.27,165.47Z" style="fill:#263238"></path><path d="M200,165.4c-.22.32-.54,1.26-1.22,1.32a41.48,41.48,0,0,1-5.43-.87c-.56-.13-.9-.95-1.17-1.51A62.27,62.27,0,0,1,200,165.4Z" style="fill:#fff"></path><path d="M219.43,231.63l7.4,5.9,4.71,3.62a2.94,2.94,0,0,1,.61,4l-.8,1.13a3,3,0,0,1-1.71,1.16l-1,.25a2.94,2.94,0,0,1-3-1l-1.91-2.39a3.07,3.07,0,0,1-.48-.89L222.05,240l-5.81-3.7Z" style="fill:#eec1bb"></path><polygon points="108.97 389.45 100.31 408.78 93.36 406.69 99.37 386.58 108.97 389.45" style="fill:#eec1bb"></polygon><polygon points="107.42 392.92 104.09 400.35 95.89 398.2 98.75 388.65 107.42 392.92" style="opacity:0.2"></polygon><polygon points="177.9 387.93 181.07 408.87 174.09 410.87 168.27 390.71 177.9 387.93" style="fill:#eec1bb"></polygon><polygon points="178.47 391.68 179.69 399.74 171.63 402.36 168.87 392.79 178.47 391.68" style="opacity:0.2"></polygon><path d="M102.23,407.49a.23.23,0,0,1-.13-.17.18.18,0,0,1,.12-.18c.12-.05,3-1.25,4.27-.72a1,1,0,0,1,.53.5.71.71,0,0,1-.09.8,3.34,3.34,0,0,1-2.36.3A14.41,14.41,0,0,1,102.23,407.49Zm.63-.17c1.42.37,3.37.61,3.8.15.06-.05.12-.16,0-.4a.53.53,0,0,0-.33-.31,1,1,0,0,0-.34-.09A8.64,8.64,0,0,0,102.86,407.32Z" style="fill:#407BFF"></path><path d="M102.13,407.46a.18.18,0,0,1-.06-.17c0-.1.51-2.16,1.6-2.84a1.36,1.36,0,0,1,1.06-.18c.5.11.62.39.62.6.05.9-2,2.33-3,2.62h-.08A.16.16,0,0,1,102.13,407.46Zm2.43-2.86a1,1,0,0,0-.66.15,4.32,4.32,0,0,0-1.34,2.24c1-.44,2.43-1.6,2.45-2.13,0-.05,0-.19-.34-.26Z" style="fill:#407BFF"></path><path d="M101.58,406.3l-8.45-1.1a.68.68,0,0,0-.74.44L90,412.32a1.14,1.14,0,0,0,.67,1.47l.23.06c3.06.34,5.79.53,9.58,1,4.48.59,3.27,1,8.53,1.74,3.17.45,4.22-3.08,2.9-3.43-6.06-1.58-6.46-3.52-8.54-6A2.75,2.75,0,0,0,101.58,406.3Z" style="fill:#263238"></path><path d="M182.08,405.23a.19.19,0,0,1-.2-.08.2.2,0,0,1,0-.21c.08-.11,1.87-2.69,3.2-2.93a1,1,0,0,1,.71.14.68.68,0,0,1,.36.72c-.11.52-.94,1.11-1.81,1.53A13.9,13.9,0,0,1,182.08,405.23Zm.44-.48c1.39-.47,3.16-1.33,3.27-1.94,0-.08,0-.2-.21-.35a.53.53,0,0,0-.44-.08,1.5,1.5,0,0,0-.34.11A8.6,8.6,0,0,0,182.52,404.75Z" style="fill:#407BFF"></path><path d="M182,405.26a.2.2,0,0,1-.15-.12c0-.09-.75-2.08-.2-3.25a1.34,1.34,0,0,1,.79-.72c.48-.18.74,0,.85.17.53.72-.44,3.06-1.1,3.83a.1.1,0,0,1-.07,0A.17.17,0,0,1,182,405.26Zm.48-3.73a1,1,0,0,0-.47.49,4.31,4.31,0,0,0,.09,2.61c.63-.94,1.17-2.66.9-3.12,0,0-.11-.15-.43,0l-.09,0Z" style="fill:#407BFF"></path><path d="M180.89,404.58l-7.69,3.67a.7.7,0,0,0-.38.78l1.6,6.92a1.14,1.14,0,0,0,1.36.87l.23-.08c2.75-1.37,5.15-2.7,8.6-4.34,4.08-1.95,3.28-1,8.1-3.18,2.91-1.34,1.87-4.87.57-4.45-5.94,2-7.33.55-10.45-.42A2.73,2.73,0,0,0,180.89,404.58Z" style="fill:#263238"></path><path d="M161.44,256.12s8.73,61.4,10.08,73.93,8.12,64.46,8.12,64.46l-10.15,2s-12.55-37.77-14.9-62.79c0,0-10.74-37.23-14.68-46.7,0,0-11.74-13.63-7.18-37.27Z" style="fill:#263238"></path><path d="M145.72,304.16c-2.26-7.23-4.44-13.84-5.81-17.12a24.32,24.32,0,0,1-5.46-3.8c-.63-2.79-1-4.57-1-4.57l8.07-11.38S143.2,291,145.72,304.16Z" style="opacity:0.2"></path><path d="M142.26,251.88s-2.89,72.41-8.82,88-26.22,55.69-26.22,55.69l-9.51-4.42s10.84-46.87,19.64-57.71l-1.83-50.75s-7.26-23.92-.42-36.8Z" style="fill:#263238"></path><polygon points="110.23 395.23 107.85 399.75 93.92 394.44 95.4 389.26 110.23 395.23" style="fill:#407BFF"></polygon><polygon points="181.25 390.88 181.94 395.65 166.99 399.03 165.27 394.22 181.25 390.88" style="fill:#407BFF"></polygon><path d="M223.37,233.77l-4.65,5.78-42.53-30.11-5.58-3.67-1.36-.89a8.79,8.79,0,0,1-3.31-8.56c.5-3.14,2.55-4.48,4.29-6.76a3,3,0,0,1,4.79.16Z" style="fill:#407BFF"></path><g style="opacity:0.2"><path d="M223.37,233.77l-4.65,5.78-42.53-30.11-5.58-3.67-1.36-.89a8.79,8.79,0,0,1-3.31-8.56c.5-3.14,2.55-4.48,4.29-6.76a3,3,0,0,1,4.79.16Z"></path></g><path d="M136.19,179.16l34.51,7.94a7.38,7.38,0,0,1,5.52,8.94l-3.6,11.09a274.47,274.47,0,0,0-10.42,44l-.76,5L115.1,245.88l12.19-61A7.4,7.4,0,0,1,136.19,179.16Z" style="fill:#407BFF"></path><path d="M136.19,179.16l34.51,7.94a7.38,7.38,0,0,1,5.52,8.94l-3.6,11.09a274.47,274.47,0,0,0-10.42,44l-.76,5L115.1,245.88l12.19-61A7.4,7.4,0,0,1,136.19,179.16Z" style="opacity:0.2"></path><path d="M166.54,218a2.18,2.18,0,0,1-.86,1.29,5.64,5.64,0,0,1-4.83.83,7.55,7.55,0,0,1-4.21-4.18,2.29,2.29,0,0,1-.09-1.59l2.7-9a2.31,2.31,0,0,1,2.82-1.56c1.79.48,3.92,1.07,5.48,1.52a2.31,2.31,0,0,1,1.58,2.82C168.18,211.58,167,216.23,166.54,218Z" style="fill:#fff;opacity:0.5"></path><polygon points="170.29 245.51 213.33 246.59 215.91 261.86 199.58 270.29 170.1 262.22 170.29 245.51" style="fill:#263238"></polygon><path d="M123.81,204.06c2.82-1.7,11.9-23.27,11.9-23.27a67.36,67.36,0,0,1-8.29,5.65C126.57,191.09,124.67,199.4,123.81,204.06Z" style="opacity:0.2"></path><path d="M98,139.22l-2.8-9.81-1.86-6.11a3.17,3.17,0,0,1,2-3.92l1.4-.49a3.23,3.23,0,0,1,2.23,0l1.07.44a3.18,3.18,0,0,1,2,2.76l.17,3.29a3.26,3.26,0,0,1-.12,1.08L101,130.25l2.78,6.88Z" style="fill:#eec1bb"></path><path d="M136.87,179.3a3.66,3.66,0,0,0-1.55-2.65c-3.51-2.41-13-9.36-18.74-17.3-7.08-9.85-13.89-27.66-13.89-27.66l-7.16,2.56s4.41,26.78,11,35.92c5.38,7.5,16,16.8,20.27,20.37a5.58,5.58,0,0,0,7.34-.15C135.69,188.88,137.44,185.74,136.87,179.3Z" style="fill:#407BFF"></path><path d="M136.87,179.3a3.66,3.66,0,0,0-1.55-2.65c-3.51-2.41-13-9.36-18.74-17.3-7.08-9.85-13.89-27.66-13.89-27.66l-7.16,2.56s4.41,26.78,11,35.92c5.38,7.5,16,16.8,20.27,20.37a5.58,5.58,0,0,0,7.34-.15C135.69,188.88,137.44,185.74,136.87,179.3Z" style="opacity:0.2"></path><g style="opacity:0.5"><path d="M159.69,184.56s-.31,3.36-4.16,2.88-8.55-6.23-8.55-6.23l-3.55-.42,6.89,10.55,5.12-1.69,4.22,3.11,2.52-7.45Z" style="fill:#fff"></path></g><path d="M134.36,189.18l-4,8.86-2.62,5.49a3,3,0,0,0,1.33,4l1.25.66a3,3,0,0,0,2.11.26l1.07-.25a3.06,3.06,0,0,0,2.25-2.33l.63-3.08a3,3,0,0,0,0-1l-.53-3.68,3.57-6.09Z" style="fill:#71403e"></path><path d="M167.32,186.53s-14.41-3.52-19.83-5.71c-1-.39-8.88,16-8.88,16L131,194s5.55-21,12.89-22.21c8.6-1.42,27.3,4.08,27.3,4.08C175.73,176.66,175.54,188.41,167.32,186.53Z" style="fill:#407BFF"></path><path d="M160.75,185.38l-.21.41a4.8,4.8,0,0,1-4.23,2.59h0c-.79,0-2.63,0-6.63-2.77h0a13.56,13.56,0,0,1-3.05-3.4v0a2.39,2.39,0,0,1,.4-.71c3-3.71,3.56-11.68,3.51-16.35l8.21,10.11C157.18,178.68,156.71,182.85,160.75,185.38Z" style="fill:#eec1bb"></path><path d="M152.49,170.35l6.06,5.28a17.51,17.51,0,0,0-.84,2.88,8.31,8.31,0,0,1-5.83-5C151.39,172.05,151.91,170.49,152.49,170.35Z" style="opacity:0.2;isolation:isolate"></path><path d="M166.29,148.32s7.08,7.35,1.41,9.92S166.29,148.32,166.29,148.32Z" style="fill:#263238"></path><path d="M150,157.4c-.37,7-.93,11.14,2.19,15.12,4.69,6,13.69,3.76,16.14-3,2.21-6.14,2.43-16.59-4.1-20.14a9.61,9.61,0,0,0-14.23,8Z" style="fill:#eec1bb"></path><path d="M160.67,160.66c-.06.57.19,1.07.56,1.11s.72-.39.79-1-.19-1.06-.56-1.1S160.74,160.1,160.67,160.66Z" style="fill:#263238"></path><path d="M167.1,161.39c-.06.57.18,1.06.56,1.1s.72-.38.78-1-.18-1.07-.55-1.11S167.16,160.82,167.1,161.39Z" style="fill:#263238"></path><path d="M164.69,161.34a20.54,20.54,0,0,0,2.17,5.16,3.34,3.34,0,0,1-2.78.21Z" style="fill:#d4827d"></path><path d="M159.81,157.72a.33.33,0,0,1-.16-.05.35.35,0,0,1,0-.48,3.37,3.37,0,0,1,2.87-1.07.34.34,0,0,1,.28.39.35.35,0,0,1-.4.28h0a2.65,2.65,0,0,0-2.26.87A.34.34,0,0,1,159.81,157.72Z" style="fill:#263238"></path><path d="M169.33,159.12a.33.33,0,0,1-.24-.22,2.68,2.68,0,0,0-1.69-1.72.33.33,0,0,1-.25-.4.34.34,0,0,1,.41-.25,3.37,3.37,0,0,1,2.19,2.16.33.33,0,0,1-.2.42h0A.3.3,0,0,1,169.33,159.12Z" style="fill:#263238"></path><path d="M161.05,168.66a5.23,5.23,0,0,1-.73-.5.16.16,0,0,1,0-.24h0a.19.19,0,0,1,.25,0,4.79,4.79,0,0,0,4.22.93.18.18,0,0,1,.22.11.18.18,0,0,1-.11.23A5,5,0,0,1,161.05,168.66Z" style="fill:#263238"></path><path d="M150.85,164.17s3.38-.09,2.75-3,2.86-5.47,2.5-9.34c0,0,18.87,4.68,14.24-5.28-1.89-3.39-9.5-3.74-15.23-3.31-7.52.56-6.08,4.91-6.08,4.91C140.84,149.28,143.18,166.16,150.85,164.17Z" style="fill:#263238"></path><path d="M145.82,163.53a6.73,6.73,0,0,0,3.81,3.41c2.22.75,3-1.62,3-3.37-.46-1.94-2.16-4.69-4.44-4.51S144.89,161.56,145.82,163.53Z" style="fill:#eec1bb"></path><path d="M157.18,97.7c-18.34,10.55-41.83-4.5-59.37,10q-.15-11.69-.19-23c17.79-16.17,46.41,3.61,63.95-10.92C161.66,81.65,157.15,90.19,157.18,97.7Z" style="fill:#407BFF"></path><path d="M157.18,97.7c-18.34,10.55-41.83-4.5-59.37,10q-.15-11.69-.19-23c17.79-16.17,46.41,3.61,63.95-10.92C161.66,81.65,157.15,90.19,157.18,97.7Z" style="fill:#fff;opacity:0.5"></path><rect x="96.48" y="81.62" width="1.64" height="44.01" transform="translate(-1.52 1.44) rotate(-0.84)" style="fill:#263238"></rect></g></svg>